<?xml version="1.0" encoding="UTF-8"?>
<svg version="1.1" xmlns="http://www.w3.org/2000/svg" width="500" height="500">
<path d="M0 0 C1.24511353 0.00725098 1.24511353 0.00725098 2.51538086 0.01464844 C5.05229439 0.03877964 7.58841286 0.07801691 10.125 0.125 C10.86669434 0.13756836 11.60838867 0.15013672 12.37255859 0.16308594 C35.08929967 0.67124403 57.2582521 7.19828865 77.125 18.125 C77.70636719 18.44178711 78.28773438 18.75857422 78.88671875 19.08496094 C86.18695009 23.08558441 86.18695009 23.08558441 89.125 25.125 C89.125 25.785 89.125 26.445 89.125 27.125 C89.888125 27.41375 90.65125 27.7025 91.4375 28 C94.125 29.125 94.125 29.125 97.125 31.125 C97.125 31.785 97.125 32.445 97.125 33.125 C97.82625 33.351875 98.5275 33.57875 99.25 33.8125 C102.86628535 35.46341288 105.21269976 37.4158835 108.125 40.125 C108.125 40.785 108.125 41.445 108.125 42.125 C108.785 42.125 109.445 42.125 110.125 42.125 C110.125 42.785 110.125 43.445 110.125 44.125 C110.785 44.125 111.445 44.125 112.125 44.125 C112.125 44.785 112.125 45.445 112.125 46.125 C112.785 46.125 113.445 46.125 114.125 46.125 C119.125 51.60119048 119.125 51.60119048 119.125 54.125 C119.785 54.125 120.445 54.125 121.125 54.125 C121.785 55.775 122.445 57.425 123.125 59.125 C123.785 59.125 124.445 59.125 125.125 59.125 C139.27786512 78.01967976 154.16091171 105.78107487 153.125 130.125 C154.17494141 130.30289063 154.17494141 130.30289063 155.24609375 130.484375 C158.38234162 131.18226462 161.20412543 132.18315883 164.1875 133.375 C165.20972656 133.77203125 166.23195313 134.1690625 167.28515625 134.578125 C171.20591003 136.7137763 173.3093255 139.27178754 175.1015625 143.34375 C178.33699099 154.72622131 179.4926768 166.00301786 179.4375 177.8125 C179.43403564 179.0284082 179.43057129 180.24431641 179.42700195 181.49707031 C179.27520353 194.16091672 178.13188115 206.37953444 173.125 218.125 C169.00699199 221.65472115 161.77976973 226.125 156.125 226.125 C156.125 229.425 156.125 232.725 156.125 236.125 C157.13820313 236.07859375 158.15140625 236.0321875 159.1953125 235.984375 C160.54684532 235.94683242 161.89841028 235.91043494 163.25 235.875 C163.91515625 235.84148437 164.5803125 235.80796875 165.265625 235.7734375 C170.40968088 235.67257366 173.16061391 236.92867679 177.125 240.125 C182.08354014 245.76747671 181.34134226 251.80626639 181.375 258.9375 C181.4059375 260.55881836 181.4059375 260.55881836 181.4375 262.21289062 C181.4706183 268.95660516 181.02307009 273.64731589 176.5625 279 C175.125 280.125 175.125 280.125 173.125 280.125 C173.125 280.785 173.125 281.445 173.125 282.125 C165.205 282.125 157.285 282.125 149.125 282.125 C148.795 283.445 148.465 284.765 148.125 286.125 C147.7125 286.90875 147.3 287.6925 146.875 288.5 C145.80808929 292.23418747 147.31659455 293.77610102 149.125 297.125 C149.228125 298.300625 149.33125 299.47625 149.4375 300.6875 C150.38785585 305.43927925 152.31771059 306.26953294 156.125 309.125 C157.08570434 312.00711302 157.23081883 313.82350044 157.1875 316.8125 C157.17847656 317.62074219 157.16945313 318.42898438 157.16015625 319.26171875 C157.14275391 320.18404297 157.14275391 320.18404297 157.125 321.125 C157.72828125 321.27195312 158.3315625 321.41890625 158.953125 321.5703125 C163.08939496 322.73113665 165.61192469 323.58627092 168.625 326.75 C171.08683731 332.28913394 171.73865702 336.79310332 170.1875 342.6875 C159.83746681 362.65482066 129.95982276 373.28072718 110.14624023 379.76977539 C102.22133846 382.24091681 94.14677755 384.18021365 86.02954102 385.90942383 C80.21814323 387.23172809 77.09204112 388.4433081 73.125 393.125 C69.19901686 396.0503673 66.47535244 396.4205011 61.625 396.4375 C57.1201684 396.55477537 57.1201684 396.55477537 53.23828125 398.515625 C51.76962849 400.34108244 51.76962849 400.34108244 50.125 403.125 C49.465 403.125 48.805 403.125 48.125 403.125 C48.125 403.785 48.125 404.445 48.125 405.125 C44.31540657 406.35137076 40.53114621 406.26569666 36.57421875 406.25439453 C35.44181259 406.25702301 35.44181259 406.25702301 34.28652954 406.25970459 C31.79516286 406.26409987 29.30386738 406.26119328 26.8125 406.2578125 C25.07902004 406.25848621 23.34554018 406.25945679 21.61206055 406.26071167 C17.98062235 406.26218549 14.34920877 406.26004419 10.71777344 406.25537109 C6.06385845 406.249674 1.41000113 406.25295469 -3.24391174 406.25894356 C-6.82296177 406.26255766 -10.40199814 406.26140667 -13.98104858 406.25881577 C-15.69705207 406.25814885 -17.4130568 406.25896671 -19.12905884 406.26129532 C-21.52747889 406.26383574 -23.92580564 406.2599616 -26.32421875 406.25439453 C-27.38725723 406.25743088 -27.38725723 406.25743088 -28.47177124 406.26052856 C-31.75155802 406.24643083 -34.73822998 406.13477784 -37.875 405.125 C-37.875 404.465 -37.875 403.805 -37.875 403.125 C-38.49375 402.83625 -39.1125 402.5475 -39.75 402.25 C-41.875 401.125 -41.875 401.125 -43.875 399.125 C-43.875 398.135 -43.875 397.145 -43.875 396.125 C-44.82761719 396.15980469 -45.78023437 396.19460938 -46.76171875 396.23046875 C-48.01597656 396.25753906 -49.27023438 396.28460938 -50.5625 396.3125 C-51.80386719 396.34730469 -53.04523438 396.38210938 -54.32421875 396.41796875 C-59.07679198 396.02584225 -61.55703836 394.44296164 -64.875 391.125 C-66.99613465 390.55351497 -69.14283574 390.07571823 -71.296875 389.64453125 C-72.63551007 389.36886138 -73.97404785 389.09271875 -75.3125 388.81616211 C-76.01632813 388.67322723 -76.72015625 388.53029236 -77.4453125 388.38302612 C-91.57818868 385.49427921 -105.26119459 381.9404007 -118.875 377.125 C-119.98681641 376.74045654 -119.98681641 376.74045654 -121.12109375 376.34814453 C-148.38647434 366.87552022 -175.19992241 352.31363421 -188.3125 325.4375 C-190.48002319 320.45043444 -191.70012834 316.54602158 -191.875 311.125 C-191.93558594 310.33222656 -191.99617188 309.53945313 -192.05859375 308.72265625 C-192.85787155 292.22846883 -185.66419375 277.96173195 -175.2265625 265.69140625 C-168.88116354 258.76627815 -160.82509876 251.03749301 -152.0456543 247.35839844 C-150.01445851 246.44874561 -148.5035208 245.64926913 -146.875 244.125 C-145.8724826 241.04390985 -145.89474557 238.09415688 -145.9375 234.875 C-145.92138672 234.03453125 -145.90527344 233.1940625 -145.88867188 232.328125 C-145.85343188 230.26071196 -145.86010945 228.19265974 -145.875 226.125 C-146.77992188 225.83238281 -147.68484375 225.53976562 -148.6171875 225.23828125 C-154.88151784 223.09759282 -160.32196567 221.00117216 -163.875 215.125 C-170.7657442 194.34509953 -173.54307549 161.28971703 -163.8125 140.8984375 C-163.503125 140.31320313 -163.19375 139.72796875 -162.875 139.125 C-162.215 139.125 -161.555 139.125 -160.875 139.125 C-160.875 138.465 -160.875 137.805 -160.875 137.125 C-159.31380578 136.33076139 -157.75098036 135.53972877 -156.1875 134.75 C-155.31738281 134.30914062 -154.44726562 133.86828125 -153.55078125 133.4140625 C-146.72348485 130.125 -146.72348485 130.125 -142.875 130.125 C-142.7925 128.97 -142.71 127.815 -142.625 126.625 C-138.58002097 91.21758085 -117.91578992 56.80895652 -90.65234375 34.2890625 C-88.875 33.125 -88.875 33.125 -86.875 33.125 C-86.875 32.465 -86.875 31.805 -86.875 31.125 C-84.80509823 29.51610775 -82.75025727 28.05990089 -80.5625 26.625 C-79.89387939 26.18575195 -79.22525879 25.74650391 -78.53637695 25.29394531 C-55.16811009 10.24183531 -28.14494514 -0.17403862 0 0 Z M-60.875 28.125 C-61.93847656 28.73085937 -63.00195312 29.33671875 -64.09765625 29.9609375 C-71.6004939 34.40121335 -78.26792182 39.45401527 -84.875 45.125 C-85.99857087 46.04341781 -87.12328605 46.96044084 -88.25 47.875 C-93.57100852 52.43586445 -98.60633808 57.55236642 -102.875 63.125 C-102.875 63.785 -102.875 64.445 -102.875 65.125 C-103.535 65.125 -104.195 65.125 -104.875 65.125 C-106.52173759 67.42675961 -108.02594538 69.71484871 -109.5 72.125 C-109.9444043 72.8476001 -110.38880859 73.5702002 -110.84667969 74.31469727 C-117.09424693 84.62631371 -122.35858443 95.14573414 -126.4375 106.5 C-126.70143555 107.23210693 -126.96537109 107.96421387 -127.23730469 108.71850586 C-127.84767089 110.49986934 -128.36971016 112.31103061 -128.875 114.125 C-128.545 114.785 -128.215 115.445 -127.875 116.125 C-127.215 115.444375 -126.555 114.76375 -125.875 114.0625 C-124.87986398 113.07839042 -123.87933329 112.0997215 -122.875 111.125 C-122.34003906 110.60550781 -121.80507812 110.08601563 -121.25390625 109.55078125 C-111.45712216 100.51245787 -96.19942969 89.72488872 -82.875 87.125 C-82.875 86.465 -82.875 85.805 -82.875 85.125 C-81.92882812 85.01929688 -80.98265625 84.91359375 -80.0078125 84.8046875 C-76.05828972 84.24046996 -72.32922614 83.17518817 -68.50561523 82.05566406 C-57.55217736 78.85318821 -46.75827346 76.70736702 -35.42675781 75.41748047 C-32.97621541 75.13660123 -30.53190213 74.82183143 -28.0859375 74.50390625 C9.24200053 69.98466698 65.24780524 68.90525706 98.125 89.125 C99.55121743 89.67597864 100.98960743 90.19629666 102.4375 90.6875 C113.48925944 95.01569279 123.59435024 102.01243354 132.109375 110.21484375 C134.02071021 112.02616723 135.98854232 113.59002252 138.125 115.125 C139.39299674 113.1251404 139.39299674 113.1251404 138.55859375 110.76171875 C133.13238089 94.69587282 125.56079822 78.59282068 115.125 65.125 C114.465 65.125 113.805 65.125 113.125 65.125 C112.73054688 64.25488281 112.73054688 64.25488281 112.328125 63.3671875 C109.01063061 57.18458432 103.23056116 51.87435922 98.125 47.125 C97.465 47.125 96.805 47.125 96.125 47.125 C96.125 46.465 96.125 45.805 96.125 45.125 C94.28777992 43.483099 92.45910599 41.98516023 90.5 40.5 C89.62516968 39.83339355 89.62516968 39.83339355 88.73266602 39.15332031 C82.52060459 34.52306831 75.95034197 30.76623324 69.125 27.125 C68.17367187 26.59132813 67.22234375 26.05765625 66.2421875 25.5078125 C28.16571914 5.03773341 -23.6098631 6.66450982 -60.875 28.125 Z M-42.875 87.125 C-44.05070557 87.32375732 -45.22641113 87.52251465 -46.43774414 87.72729492 C-49.16099206 88.22441899 -51.86042921 88.77419364 -54.5625 89.375 C-55.50472412 89.58334473 -56.44694824 89.79168945 -57.41772461 90.00634766 C-79.27356499 95.07644672 -102.22049583 104.52853426 -117.875 121.125 C-117.875 121.785 -117.875 122.445 -117.875 123.125 C-118.535 123.125 -119.195 123.125 -119.875 123.125 C-124.37597836 129.68966805 -125.96672187 136.23912877 -127.296875 143.96484375 C-127.875 147.125 -127.875 147.125 -128.875 149.125 C-133.27046114 173.76524933 -131.17210877 199.2329175 -127.0625 223.75 C-126.92166992 224.63848633 -126.78083984 225.52697266 -126.63574219 226.44238281 C-123.77877935 242.30180702 -113.11846015 255.20429545 -102.0625 266.375 C-101.42844238 267.01912842 -100.79438477 267.66325684 -100.14111328 268.3269043 C-96.93169793 271.47654058 -94.31456645 273.87346508 -89.875 275.125 C-89.875 275.785 -89.875 276.445 -89.875 277.125 C-88.42711219 278.36638669 -88.42711219 278.36638669 -86.5078125 279.55078125 C-85.79125488 280.01516602 -85.07469727 280.47955078 -84.33642578 280.95800781 C-83.56540527 281.44624023 -82.79438477 281.93447266 -82 282.4375 C-81.2251123 282.93733398 -80.45022461 283.43716797 -79.65185547 283.95214844 C-75.53660477 286.57195946 -71.47091234 288.89901642 -67 290.875 C-63.73860594 292.43958769 -62.99787949 292.92839282 -61 296.125 C-60.57427029 297.44301252 -60.20871509 298.78073923 -59.875 300.125 C-58.11470088 308.90185097 -58.11470088 308.90185097 -52.6875 315.4375 C-50.8003125 315.7778125 -50.8003125 315.7778125 -48.875 316.125 C-48.16988281 316.31320312 -47.46476562 316.50140625 -46.73828125 316.6953125 C-43.9761468 317.14843752 -42.51174602 317.12635131 -39.875 316.125 C-33.6924606 309.92561105 -33.6924606 309.92561105 -30.875 302.125 C-30.215 302.125 -29.555 302.125 -28.875 302.125 C-28.29376877 301.31498032 -27.71253754 300.50496063 -27.11369324 299.6703949 C-24.875 297.125 -24.875 297.125 -22.17671204 296.45643616 C-21.14684677 296.43737717 -20.11698151 296.41831818 -19.0559082 296.39868164 C-17.88401443 296.36678238 -16.71212067 296.33488312 -15.50471497 296.30201721 C-13.60939278 296.29367104 -13.60939278 296.29367104 -11.67578125 296.28515625 C-10.37102341 296.26851425 -9.06626556 296.25187225 -7.7219696 296.23472595 C-4.9587235 296.20480808 -2.19625792 296.19552114 0.56713867 296.19848633 C4.08818034 296.19899279 7.60414025 296.13093554 11.12398052 296.04462528 C14.50328994 295.97520345 17.88170727 295.97856975 21.26171875 295.97265625 C22.51514572 295.93672867 23.76857269 295.90080109 25.0599823 295.86378479 C30.19549129 295.9303027 33.71825935 296.03266128 37.86001587 299.24874878 C40.1745582 301.77389332 42.17894249 304.30849802 44.125 307.125 C44.75754196 308.03318985 45.39008392 308.9413797 46.04179382 309.87709045 C46.58487686 310.6601506 47.1279599 311.44321075 47.6875 312.25 C49.89910231 315.21106081 49.89910231 315.21106081 53.125 316.75390625 C55.5146459 316.89056709 55.5146459 316.89056709 59.125 316.125 C60.218125 315.939375 61.31125 315.75375 62.4375 315.5625 C66.19829073 313.55091426 66.90514033 310.99009885 68.125 307.125 C68.4653125 306.11566406 68.805625 305.10632813 69.15625 304.06640625 C69.86836251 301.94787155 70.56947428 299.82559689 71.2578125 297.69921875 C72.68694834 293.45687408 73.73120257 292.65326575 77.6875 290.625 C94.38883157 281.78221797 94.38883157 281.78221797 109.125 270.125 C109.125 269.465 109.125 268.805 109.125 268.125 C109.785 268.125 110.445 268.125 111.125 268.125 C111.125 267.465 111.125 266.805 111.125 266.125 C111.785 266.125 112.445 266.125 113.125 266.125 C113.125 265.465 113.125 264.805 113.125 264.125 C113.785 264.125 114.445 264.125 115.125 264.125 C115.125 263.465 115.125 262.805 115.125 262.125 C115.785 262.125 116.445 262.125 117.125 262.125 C118.98192294 259.99596758 120.72096337 257.86315965 122.4375 255.625 C122.9337085 254.9844165 123.42991699 254.34383301 123.94116211 253.68383789 C143.18055391 228.60759846 143.94840976 189.58632774 140.5546875 159.2109375 C139.9222418 154.47806278 139.0609253 149.8057407 138.125 145.125 C137.9084375 143.88621094 137.691875 142.64742187 137.46875 141.37109375 C134.95634029 128.46508437 128.58475608 120.04213706 118.125 112.125 C115.43198752 110.85164196 115.43198752 110.85164196 113.125 110.125 C113.125 109.465 113.125 108.805 113.125 108.125 C96.00780089 99.42761234 79.6139213 92.27430209 60.75 88.4375 C59.7590332 88.23503662 58.76806641 88.03257324 57.74707031 87.82397461 C41.3932238 84.6528723 25.46960651 83.77694529 8.83422852 83.80932617 C5.4601178 83.81247887 2.08689333 83.78896278 -1.28710938 83.76367188 C-15.3899592 83.72232909 -28.97497504 84.74186252 -42.875 87.125 Z M-147.4375 143.375 C-148.40816406 143.79265625 -149.37882812 144.2103125 -150.37890625 144.640625 C-153.22434997 146.33275116 -153.6523158 147.13040448 -154.875 150.125 C-157.17563989 159.23361904 -157.23997128 168.54086548 -157.1875 177.875 C-157.18501251 178.57822388 -157.18252502 179.28144775 -157.17996216 180.00598145 C-157.63978828 195.46699904 -157.63978828 195.46699904 -153.875 210.125 C-149.10524853 213.58739781 -144.60192923 214.91933069 -138.875 216.125 C-138.93558594 215.57489258 -138.99617188 215.02478516 -139.05859375 214.45800781 C-141.28493977 193.59029534 -142.42098531 172.37413767 -139.3125 151.54296875 C-138.86323245 148.03306604 -138.80259049 144.6594892 -138.875 141.125 C-142.3325624 141.125 -144.28665132 141.98208154 -147.4375 143.375 Z M149.125 141.125 C149.18558594 141.79144531 149.24617188 142.45789063 149.30859375 143.14453125 C149.58072917 146.13802083 149.85286458 149.13151042 150.125 152.125 C150.20806396 152.88425781 150.29112793 153.64351562 150.37670898 154.42578125 C151.2073248 162.44984344 151.32108116 170.43847959 151.3125 178.5 C151.31358765 179.54450317 151.31358765 179.54450317 151.31469727 180.61010742 C151.31333039 192.53610723 150.61782006 204.28906954 149.125 216.125 C149.73553223 215.91858887 150.34606445 215.71217773 150.97509766 215.49951172 C151.77995605 215.22896973 152.58481445 214.95842773 153.4140625 214.6796875 C154.21021973 214.41140137 155.00637695 214.14311523 155.82666016 213.86669922 C157.69802718 213.26278876 159.59653252 212.74349157 161.5 212.25 C166.17515006 208.46535471 166.47443596 202.85913 167.125 197.125 C169.51207147 171.69237514 169.51207147 171.69237514 164.125 147.125 C161.67293895 144.84882519 159.18828065 143.57579006 156.0625 142.4375 C155.39089844 142.18613281 154.71929687 141.93476563 154.02734375 141.67578125 C151.97480357 140.98594702 151.97480357 140.98594702 149.125 141.125 Z M-133.875 243.125 C-133.93374776 246.45825754 -133.96884467 249.79137938 -134 253.125 C-134.01675781 254.05957031 -134.03351563 254.99414062 -134.05078125 255.95703125 C-134.13502121 268.00334558 -130.62623582 279.10761506 -122.25390625 288.05859375 C-108.92961402 299.63256844 -85.77060475 311.78780018 -67.875 311.125 C-68.18403983 309.78582739 -68.52523242 308.45411682 -68.875 307.125 C-69.02453125 306.20332031 -69.1740625 305.28164063 -69.328125 304.33203125 C-71.67609209 299.46414998 -75.58987459 297.9019894 -80.25 295.4375 C-81.9672623 294.49813189 -83.68344705 293.55679066 -85.3984375 292.61328125 C-86.16075684 292.20634033 -86.92307617 291.79939941 -87.70849609 291.38012695 C-89.875 290.125 -89.875 290.125 -92.02978516 288.46948242 C-93.7638912 286.92870335 -93.7638912 286.92870335 -95.875 287.125 C-95.875 286.465 -95.875 285.805 -95.875 285.125 C-98.51184747 282.72679695 -98.51184747 282.72679695 -101.875 282.125 C-101.875 281.465 -101.875 280.805 -101.875 280.125 C-103.525 279.465 -105.175 278.805 -106.875 278.125 C-106.875 277.465 -106.875 276.805 -106.875 276.125 C-107.535 276.125 -108.195 276.125 -108.875 276.125 C-108.875 275.465 -108.875 274.805 -108.875 274.125 C-109.535 274.125 -110.195 274.125 -110.875 274.125 C-110.875 273.465 -110.875 272.805 -110.875 272.125 C-111.535 272.125 -112.195 272.125 -112.875 272.125 C-112.875 271.465 -112.875 270.805 -112.875 270.125 C-114.01500538 268.98499462 -115.15918639 267.84895463 -116.3203125 266.73046875 C-122.87206225 259.96471712 -128.80713386 251.62359357 -132.875 243.125 C-133.205 243.125 -133.535 243.125 -133.875 243.125 Z M143.125 243.125 C142.81949219 243.75664062 142.51398438 244.38828125 142.19921875 245.0390625 C139.12584059 251.04730036 135.59720026 256.39733437 131.4375 261.6875 C130.96207764 262.29480957 130.48665527 262.90211914 129.99682617 263.52783203 C127.84312637 266.21473121 126.01130789 268.20079474 123.125 270.125 C123.125 270.785 123.125 271.445 123.125 272.125 C122.465 272.125 121.805 272.125 121.125 272.125 C121.125 272.785 121.125 273.445 121.125 274.125 C120.465 274.125 119.805 274.125 119.125 274.125 C119.125 274.785 119.125 275.445 119.125 276.125 C118.465 276.125 117.805 276.125 117.125 276.125 C117.125 276.785 117.125 277.445 117.125 278.125 C116.465 278.125 115.805 278.125 115.125 278.125 C115.125 278.785 115.125 279.445 115.125 280.125 C114.56425781 280.38152344 114.00351562 280.63804687 113.42578125 280.90234375 C110.83555551 282.27881346 108.6477121 283.9118779 106.3125 285.6875 C99.02982832 291.05626201 91.11349275 296.52261808 82.796875 300.13671875 C80.57556996 301.44977991 80.15154287 302.65305604 79.3125 305.0625 C79.05855469 305.75214844 78.80460937 306.44179688 78.54296875 307.15234375 C77.90947786 309.32177102 77.90947786 309.32177102 79.125 312.125 C90.44652381 309.27725475 101.28655244 305.94913497 111.9375 301.125 C112.83678223 300.7223291 113.73606445 300.3196582 114.66259766 299.90478516 C126.67318927 294.296543 136.53826018 285.78129437 142.3125 273.625 C144.4415148 267.07418525 144.24461335 260.55966882 144.1875 253.75 C144.18298828 252.72777344 144.17847656 251.70554687 144.17382812 250.65234375 C144.162103 248.14316806 144.14569176 245.6341151 144.125 243.125 C143.795 243.125 143.465 243.125 143.125 243.125 Z M156.125 247.125 C156.06441406 248.27097656 156.00382812 249.41695312 155.94140625 250.59765625 C155.85693011 252.12761297 155.77228573 253.65756041 155.6875 255.1875 C155.64818359 255.93966797 155.60886719 256.69183594 155.56835938 257.46679688 C155.30919281 262.07198741 154.8450579 266.56866724 154.125 271.125 C156.43743792 271.15185412 158.7499627 271.17132841 161.0625 271.1875 C162.35027344 271.19910156 163.63804687 271.21070313 164.96484375 271.22265625 C167.98798403 271.49032549 167.98798403 271.49032549 169.125 270.125 C169.2241657 268.50242456 169.25579777 266.87560169 169.2578125 265.25 C169.25910156 264.26515625 169.26039063 263.2803125 169.26171875 262.265625 C169.25785156 261.22921875 169.25398438 260.1928125 169.25 259.125 C169.25386719 258.08859375 169.25773437 257.0521875 169.26171875 255.984375 C169.26042969 254.99953125 169.25914062 254.0146875 169.2578125 253 C169.25668457 252.08992187 169.25555664 251.17984375 169.25439453 250.2421875 C169.36060009 248.1397152 169.36060009 248.1397152 168.125 247.125 C166.10535801 247.05255947 164.08332876 247.04122812 162.0625 247.0625 C160.95777344 247.07152344 159.85304688 247.08054687 158.71484375 247.08984375 C157.86019531 247.10144531 157.00554687 247.11304688 156.125 247.125 Z M-153.1875 261.875 C-154.13238281 262.57109375 -155.07726562 263.2671875 -156.05078125 263.984375 C-156.98277344 264.69078125 -157.91476563 265.3971875 -158.875 266.125 C-159.81730469 266.83140625 -160.75960937 267.5378125 -161.73046875 268.265625 C-162.79201172 269.18601562 -162.79201172 269.18601562 -163.875 270.125 C-163.875 270.785 -163.875 271.445 -163.875 272.125 C-164.535 272.125 -165.195 272.125 -165.875 272.125 C-167.4388921 274.05118371 -168.85469735 275.95610849 -170.25 278 C-170.65412109 278.58773193 -171.05824219 279.17546387 -171.47460938 279.78100586 C-178.69497035 290.57205183 -181.70913821 301.9289246 -179.37890625 314.8828125 C-177.74406662 320.77562427 -175.05389483 325.92317209 -171.875 331.125 C-171.215 331.125 -170.555 331.125 -169.875 331.125 C-169.49988281 331.98351562 -169.49988281 331.98351562 -169.1171875 332.859375 C-161.72128508 346.34875676 -145.18629458 353.26949497 -131.80517578 359.25390625 C-130.15009975 360.00084671 -128.50902547 360.77867832 -126.87109375 361.5625 C-111.48650476 368.89941278 -94.56224659 373.41025193 -77.859375 376.51171875 C-74.875 377.125 -74.875 377.125 -72.875 378.125 C-70.565 378.125 -68.255 378.125 -65.875 378.125 C-65.875 373.505 -65.875 368.885 -65.875 364.125 C-66.85597656 363.95484375 -67.83695312 363.7846875 -68.84765625 363.609375 C-81.44181648 361.3695743 -93.82526618 358.4842244 -105.875 354.125 C-107.03128906 353.71636719 -108.18757813 353.30773437 -109.37890625 352.88671875 C-123.03118184 347.98048545 -136.42973529 342.67696588 -147.87109375 333.59375 C-149.72976406 331.92794695 -149.72976406 331.92794695 -151.875 332.125 C-151.875 331.465 -151.875 330.805 -151.875 330.125 C-153.08560834 329.03780319 -154.34490544 328.00445376 -155.625 327 C-161.40451993 322.10019461 -164.37854064 316.21981244 -165.11328125 308.6796875 C-165.4225948 297.51184034 -161.50739181 289.20047074 -153.875 281.125 C-152.0480384 279.65869221 -150.21453551 278.20050209 -148.375 276.75 C-144.73018323 273.65492289 -144.73018323 273.65492289 -143.42578125 269.21875 C-143.77197425 265.29178463 -144.63104642 261.85686074 -145.875 258.125 C-149.01703159 258.125 -150.70184927 260.03178403 -153.1875 261.875 Z M-139.875 283.125 C-146.15196478 288.14383676 -150.47877852 292.81705914 -153.875 300.125 C-154.205 300.785 -154.535 301.445 -154.875 302.125 C-155.68576281 308.72692572 -154.20245528 311.96097482 -150.3828125 317.33984375 C-148.9828613 319.23554068 -148.9828613 319.23554068 -146.875 320.125 C-146.76542969 319.44953125 -146.65585938 318.7740625 -146.54296875 318.078125 C-146.30513672 316.74007812 -146.30513672 316.74007812 -146.0625 315.375 C-145.83626953 314.05242187 -145.83626953 314.05242187 -145.60546875 312.703125 C-144.80521173 309.87868844 -143.86772526 308.26730028 -141.875 306.125 C-140.885 305.795 -139.895 305.465 -138.875 305.125 C-138.06545234 303.1576835 -138.06545234 303.1576835 -137.6875 300.8125 C-137.52894531 300.03261719 -137.37039062 299.25273437 -137.20703125 298.44921875 C-136.7807191 295.85633625 -136.7807191 295.85633625 -136.875 292.125 C-136.215 292.125 -135.555 292.125 -134.875 292.125 C-135.44852893 288.25367972 -137.36204352 286.04327204 -139.875 283.125 Z M132.375 301.1875 C121.03534703 310.09336418 107.70305046 315.33206238 93.9375 319.1875 C93.0196875 319.44571533 92.101875 319.70393066 91.15625 319.9699707 C77.40210392 323.77279973 63.51462333 325.90592832 49.39086914 327.81176758 C47.46448576 328.07806969 45.54220728 328.37380019 43.62109375 328.67578125 C39.14642212 329.25073906 34.69286296 329.49103464 30.1875 329.6875 C29.23093506 329.7292334 28.27437012 329.7709668 27.28881836 329.81396484 C16.23186255 330.25376583 5.18824633 330.29638186 -5.875 330.125 C-6.80892578 330.11243164 -7.74285156 330.09986328 -8.70507812 330.08691406 C-36.94298761 329.60073783 -68.74434795 326.59479082 -94.875 315.125 C-96.62020427 314.50711699 -98.37000041 313.90198606 -100.125 313.3125 C-109.4795164 309.94231121 -117.74643271 304.7848913 -125.875 299.125 C-127.62065111 302.34139654 -128.079437 304.44513404 -127.875 308.125 C-126.885 308.455 -125.895 308.785 -124.875 309.125 C-124.875 309.785 -124.875 310.445 -124.875 311.125 C-108.97380169 319.98086539 -93.57807052 326.01403593 -75.875 330.125 C-73.87421052 330.64279225 -71.87414632 331.16339948 -69.875 331.6875 C-64.07035584 333.13280171 -58.22724144 334.29685214 -52.33642578 335.32348633 C-49.58758771 335.80673181 -46.87016308 336.33850733 -44.13842773 336.91894531 C-28.22415495 340.1067087 -12.02502066 339.50537484 4.1239624 339.38928223 C7.3190859 339.37007652 10.51415224 339.36612109 13.70932579 339.3625679 C17.54322244 339.35741718 21.37706819 339.34291434 25.2109375 339.328125 C26.29381609 339.32530392 26.29381609 339.32530392 27.39857101 339.32242584 C29.44070566 339.31553353 31.48281018 339.30099913 33.52490234 339.28613281 C34.68226898 339.27930481 35.83963562 339.27247681 37.03207397 339.26544189 C39.85196599 339.13739778 42.3802001 338.75268905 45.125 338.125 C46.67890305 337.90527445 48.23508973 337.70121007 49.79296875 337.51171875 C79.55810531 333.76631085 113.50028705 327.36287653 137.9296875 308.75 C139.3702561 307.15625701 139.3702561 307.15625701 138.98046875 304.86328125 C138.76003906 304.06277344 138.53960937 303.26226562 138.3125 302.4375 C137.99345703 301.22513672 137.99345703 301.22513672 137.66796875 299.98828125 C137.48878906 299.37339844 137.30960937 298.75851562 137.125 298.125 C135.24261298 298.125 133.75218827 300.04403164 132.375 301.1875 Z M-25.875 315.125 C-25.875 315.785 -25.875 316.445 -25.875 317.125 C-26.865 317.62 -26.865 317.62 -27.875 318.125 C-5.86661524 321.12736187 16.10630358 320.93696579 38.125 318.125 C37.19058465 316.85189688 36.25232889 315.581612 35.3125 314.3125 C34.52939453 313.25095703 34.52939453 313.25095703 33.73046875 312.16796875 C31.03287342 308.45196141 31.03287342 308.45196141 26.98907471 306.71040344 C26.16413513 306.69293564 25.33919556 306.67546783 24.48925781 306.6574707 C23.55108215 306.63187576 22.61290649 306.60628082 21.64630127 306.57991028 C20.12755402 306.56549141 20.12755402 306.56549141 18.578125 306.55078125 C17.5335614 306.5360527 16.4889978 306.52132416 15.41278076 306.50614929 C13.20039191 306.48218322 10.98789642 306.46677261 8.77539062 306.45922852 C5.40048147 306.43766283 2.03015525 306.35751858 -1.34375 306.27539062 C-3.49476773 306.25939134 -5.64581507 306.24690805 -7.796875 306.23828125 C-8.80127625 306.20640213 -9.80567749 306.17452301 -10.84051514 306.14167786 C-18.346277 306.2133487 -22.00703174 308.64056532 -25.875 315.125 Z M-134.875 317.125 C-135.93661434 324.3211101 -135.93661434 324.3211101 -133.5859375 330.82421875 C-131.42075639 332.21085601 -129.25959873 333.1604832 -126.875 334.125 C-125.94945313 334.56714844 -125.02390625 335.00929688 -124.0703125 335.46484375 C-109.18380114 342.32574202 -93.20151032 347.26238004 -77.3125 351.1875 C-76.46292725 351.40349854 -75.61335449 351.61949707 -74.73803711 351.84204102 C-69.21043965 353.13464671 -64.1158541 353.82079575 -58.859375 351.0703125 C-55.93748166 349.67838693 -53.33338174 349.93583237 -50.125 350 C-48.95453125 350.01804687 -47.7840625 350.03609375 -46.578125 350.0546875 C-45.68609375 350.07789063 -44.7940625 350.10109375 -43.875 350.125 C-43.875 349.465 -43.875 348.805 -43.875 348.125 C-44.42357666 348.01833008 -44.97215332 347.91166016 -45.53735352 347.80175781 C-94.54745968 338.14606512 -94.54745968 338.14606512 -114.875 328.125 C-116.89231443 327.1799518 -118.91315489 326.24239272 -120.9375 325.3125 C-121.83597656 324.89355469 -122.73445313 324.47460938 -123.66015625 324.04296875 C-125.78334273 322.99737354 -125.78334273 322.99737354 -127.875 323.125 C-127.875 322.465 -127.875 321.805 -127.875 321.125 C-130.1477675 319.62975822 -132.4429943 318.34100285 -134.875 317.125 Z M141.125 319.625 C119.46815297 335.86763527 87.94770299 342.42422977 61.63134766 346.13793945 C57.43942303 346.66632757 57.43942303 346.66632757 54.125 349.125 C55.15542029 350.38825095 55.15542029 350.38825095 57.3828125 350.15234375 C58.80207031 350.10787109 58.80207031 350.10787109 60.25 350.0625 C64.99477453 350.00682468 68.67157843 350.54156122 73.125 352.125 C73.125 352.785 73.125 353.445 73.125 354.125 C81.71530448 352.92376831 89.80146296 350.93489612 98.0625 348.3125 C99.77808105 347.77302734 99.77808105 347.77302734 101.52832031 347.22265625 C114.63926785 343.06068832 126.37326781 338.27886697 138.125 331.125 C138.929375 330.69316406 139.73375 330.26132812 140.5625 329.81640625 C142.76083303 328.64076552 142.76083303 328.64076552 145.125 326.125 C145.67452405 323.03719821 145.55006136 320.22187561 145.125 317.125 C143.60218274 317.0183026 143.60218274 317.0183026 141.125 319.625 Z M149 336.0625 C139.03500172 343.84960363 127.72253477 349.73323957 115.609375 353.3671875 C112.93181461 354.12877773 112.93181461 354.12877773 109.75 355.625 C99.046583 360.05400014 87.36230507 362.38134629 76.125 365.125 C76.125 368.755 76.125 372.385 76.125 376.125 C105.79025418 372.67555184 137.80525008 360.44474992 159.125 339.125 C159.45833333 336.625 159.45833333 336.625 159.125 334.125 C158.135 333.135 158.135 333.135 157.125 332.125 C153.13081582 332.125 152.07718512 333.55532271 149 336.0625 Z M-33.875 353.125 C-34.17885765 356.15211016 -34.29486798 358.97087474 -34.2734375 362 C-34.27630768 362.88026855 -34.27917786 363.76053711 -34.28213501 364.66748047 C-34.28417828 366.53027997 -34.27863009 368.3931008 -34.26611328 370.25585938 C-34.25006308 373.11376741 -34.26595282 375.97026116 -34.28515625 378.828125 C-34.28317386 380.6354198 -34.27933029 382.44271372 -34.2734375 384.25 C-34.27951019 385.10835449 -34.28558289 385.96670898 -34.2918396 386.85107422 C-34.29553717 389.50639117 -34.29553717 389.50639117 -33.875 393.125 C-30.17637297 395.59075135 -28.29755921 395.3892449 -23.88085938 395.41552734 C-23.17322952 395.42224457 -22.46559967 395.42896179 -21.73652649 395.43588257 C-19.39719629 395.45488233 -17.05815255 395.45878738 -14.71875 395.4609375 C-13.09354534 395.4673629 -11.46834185 395.47409107 -9.84313965 395.48110962 C-6.43690304 395.49308649 -3.0307679 395.49678991 0.37548828 395.49560547 C4.74392233 395.49540199 9.11170792 395.5227318 13.4799881 395.55714989 C16.83598837 395.57936465 20.19183106 395.58344473 23.54789734 395.58238602 C25.15868876 395.58474911 26.76948407 395.59361236 28.38020325 395.60905075 C30.6308874 395.62860703 32.8801533 395.6229157 35.13085938 395.61083984 C37.05254944 395.6151149 37.05254944 395.6151149 39.01306152 395.61947632 C42.17475981 395.4161409 42.17475981 395.4161409 44.03787231 393.32559204 C45.69200999 389.97724368 45.55285519 386.65384253 45.5234375 383 C45.52630768 382.21608887 45.52917786 381.43217773 45.53213501 380.62451172 C45.53417264 378.97037024 45.52866381 377.3162045 45.51611328 375.66210938 C45.5000544 373.13356529 45.51597117 370.60661951 45.53515625 368.078125 C45.53317376 366.46874648 45.52932997 364.85936895 45.5234375 363.25 C45.52951019 362.4957373 45.53558289 361.74147461 45.5418396 360.96435547 C45.50222134 358.00011625 45.36198203 355.60470518 44.03787231 352.92440796 C41.18714418 350.24277424 38.99400169 350.63056608 35.13085938 350.63916016 C34.42322952 350.63536346 33.71559967 350.63156677 32.98652649 350.62765503 C30.64681711 350.62024392 28.30834905 350.64163796 25.96875 350.6640625 C24.34354803 350.66644673 22.71834328 350.66735229 21.09313965 350.6668396 C17.68675486 350.66996855 14.28079069 350.68654051 10.87451172 350.71337891 C6.5062299 350.74735907 2.1384104 350.75500754 -2.2299881 350.75348854 C-5.58600282 350.75403218 -8.94191628 350.76499838 -12.29789734 350.77949142 C-13.90865818 350.78585972 -15.5194305 350.7897984 -17.13020325 350.79127884 C-19.38062105 350.79561159 -21.63054711 350.81311142 -23.88085938 350.83447266 C-25.80254944 350.84590805 -25.80254944 350.84590805 -27.76306152 350.85757446 C-31.04057979 350.88769192 -31.04057979 350.88769192 -33.875 353.125 Z M-53.875 361.125 C-53.875 368.715 -53.875 376.305 -53.875 384.125 C-49.16441438 385.4971042 -49.16441438 385.4971042 -45.875 384.125 C-45.875 376.535 -45.875 368.945 -45.875 361.125 C-48.515 361.125 -51.155 361.125 -53.875 361.125 Z M56.125 361.125 C56.125 368.715 56.125 376.305 56.125 384.125 C58.765 384.125 61.405 384.125 64.125 384.125 C64.125 376.535 64.125 368.945 64.125 361.125 C61.485 361.125 58.845 361.125 56.125 361.125 Z " fill="#E8E8E8" transform="translate(244.875,48.875)"/>
<path d="M0 0 C0.69158203 0.01256836 1.38316406 0.02513672 2.09570312 0.03808594 C37.68592731 0.80095601 77.58704658 6.95683411 106 30 C106.75410156 30.52851563 107.50820313 31.05703125 108.28515625 31.6015625 C108.85105469 32.06304687 109.41695312 32.52453125 110 33 C110 33.66 110 34.32 110 35 C110.66 35 111.32 35 112 35 C116.71773553 41.66990195 117.71455175 49.10560804 119 57 C119.20753906 58.17046875 119.41507813 59.3409375 119.62890625 60.546875 C123.41934607 85.25100027 125.59869457 124.92720603 111.18359375 146.70703125 C110.79300781 147.13371094 110.40242187 147.56039062 110 148 C109.34 148 108.68 148 108 148 C107.77699219 148.54785156 107.55398438 149.09570312 107.32421875 149.66015625 C103.19368642 156.95864848 95.07965385 163.63170294 88 168 C87.34 168 86.68 168 86 168 C86 168.66 86 169.32 86 170 C85.04738281 170.54269531 84.09476563 171.08539063 83.11328125 171.64453125 C81.84633756 172.36715839 80.57941141 173.08981627 79.3125 173.8125 C78.68666016 174.16892578 78.06082031 174.52535156 77.41601562 174.89257812 C76.80048828 175.24384766 76.18496094 175.59511719 75.55078125 175.95703125 C74.94314941 176.3020166 74.33551758 176.64700195 73.70947266 177.00244141 C72.2102069 177.87733428 70.74786778 178.8148797 69.29296875 179.76171875 C67 181 67 181 63 181 C63 181.66 63 182.32 63 183 C60.45884998 183.95972174 57.91710543 184.91781494 55.375 185.875 C54.66214844 186.14441406 53.94929687 186.41382813 53.21484375 186.69140625 C38.5492791 192.2078113 38.5492791 192.2078113 31 191 C28.73706055 189.66668701 28.73706055 189.66668701 26.44921875 188.01855469 C20.50961725 184.31028877 15.43783636 184.12708825 8.5625 184.203125 C7.40177979 184.19738464 6.24105957 184.19164429 5.04516602 184.18572998 C2.60463495 184.18166872 0.1640373 184.192588 -2.27636719 184.21777344 C-5.99042727 184.24991715 -9.70013614 184.21801593 -13.4140625 184.1796875 C-15.79688451 184.18365273 -18.17970383 184.19134085 -20.5625 184.203125 C-21.66070068 184.19097961 -22.75890137 184.17883423 -23.89038086 184.1663208 C-30.81933748 184.29135521 -35.13735025 185.62632644 -40.8057251 189.66172791 C-45.18083476 192.33007505 -49.51575774 191.57801157 -54.31054688 190.46240234 C-56.66085266 189.78715732 -58.94830439 189.01259936 -61.25 188.1875 C-62.02601563 187.92646484 -62.80203125 187.66542969 -63.6015625 187.39648438 C-67.72266947 185.97238171 -71.3105026 184.36347692 -75 182 C-77.19130534 181.30420546 -77.19130534 181.30420546 -79 181 C-79 180.34 -79 179.68 -79 179 C-79.69609375 178.90976562 -80.3921875 178.81953125 -81.109375 178.7265625 C-93.79750498 175.53738388 -107.07408168 163.12839662 -116 154 C-116.36222656 153.27167969 -116.72445312 152.54335938 -117.09765625 151.79296875 C-117.91956178 149.63500266 -117.91956178 149.63500266 -121 149 C-124 144.66666667 -124 144.66666667 -124 142 C-124.66 142 -125.32 142 -126 142 C-130.43468296 125.1894576 -130.43468296 125.1894576 -131 117 C-131.16077136 115.20779471 -131.32757877 113.41612203 -131.5 111.625 C-131.5721875 110.81289062 -131.644375 110.00078125 -131.71875 109.1640625 C-131.95291042 106.82239513 -131.95291042 106.82239513 -133 104 C-133.09686038 101.41126919 -133.13997796 98.85032287 -133.1328125 96.26171875 C-133.13376923 95.50333206 -133.13472595 94.74494537 -133.13571167 93.96357727 C-133.13639189 92.35893674 -133.13454858 90.75429344 -133.13037109 89.1496582 C-133.12504282 86.70713013 -133.13030987 84.26478781 -133.13671875 81.82226562 C-133.13605751 80.26041626 -133.13477539 78.69856702 -133.1328125 77.13671875 C-133.13483673 76.41151535 -133.13686096 75.68631195 -133.13894653 74.93913269 C-133.12027231 70.84789628 -132.77880213 67.01361115 -132 63 C-131.79346802 61.75573242 -131.79346802 61.75573242 -131.58276367 60.48632812 C-131.13252486 57.82146554 -130.66066935 55.16088173 -130.1875 52.5 C-130.03474609 51.57574219 -129.88199219 50.65148437 -129.72460938 49.69921875 C-127.56114204 37.74456526 -120.04292928 31.30384593 -110.5390625 24.33203125 C-79.72021547 3.33180844 -36.30105367 -0.84242952 0 0 Z M-86 25 C-87.7015625 25.680625 -87.7015625 25.680625 -89.4375 26.375 C-105.72210753 33.76726211 -105.72210753 33.76726211 -117 47 C-117.63132836 49.45786384 -118.16751249 51.94142802 -118.625 54.4375 C-118.86476562 55.71496094 -119.10453125 56.99242187 -119.3515625 58.30859375 C-119.56554687 59.52675781 -119.77953125 60.74492187 -120 62 C-120.17345947 62.8962207 -120.34691895 63.79244141 -120.52563477 64.71582031 C-121.0815182 68.56437615 -121.19877515 72.35808241 -121.23828125 76.23828125 C-121.24793915 77.02853195 -121.25759705 77.81878265 -121.26754761 78.63298035 C-121.29236822 81.19286802 -121.30494637 83.75250492 -121.3125 86.3125 C-121.31545074 87.18293945 -121.31840149 88.05337891 -121.32144165 88.95019531 C-121.83450959 119.3070799 -121.83450959 119.3070799 -108.5625 145.25 C-108.08490234 145.765625 -107.60730469 146.28125 -107.11523438 146.8125 C-104.59663547 149.49347771 -102.10393265 152.00802564 -99 154 C-98.34 154 -97.68 154 -97 154 C-97 154.66 -97 155.32 -97 156 C-95.32126935 157.59011346 -95.32126935 157.59011346 -93.1875 159.125 C-92.47980469 159.66382813 -91.77210938 160.20265625 -91.04296875 160.7578125 C-88.97127005 162.25976613 -88.97127005 162.25976613 -86 162 C-86 162.66 -86 163.32 -86 164 C-76.03672188 169.0598847 -66.07043723 173.9428519 -55.625 177.9375 C-54.48289062 178.37964844 -53.34078125 178.82179688 -52.1640625 179.27734375 C-48.44280473 180.12726065 -47.28677061 179.84163496 -44 178 C-43.25355225 177.32396729 -42.50710449 176.64793457 -41.73803711 175.95141602 C-36.50155001 172.47222298 -29.77374449 173.38448924 -23.73046875 173.3984375 C-22.32570393 173.3906518 -20.92094376 173.38198005 -19.51618958 173.37246704 C-16.57663699 173.35758004 -13.6375649 173.3580957 -10.69799805 173.36865234 C-6.95189471 173.38021972 -3.20777636 173.34642388 0.53799915 173.299963 C3.43880999 173.27032636 6.33915206 173.26876658 9.24008751 173.27498245 C10.6198589 173.27396346 11.99965913 173.26362849 13.379282 173.24335861 C21.35375136 173.140589 26.87480239 173.42487039 33.0464325 178.7862854 C34.99028557 180.25087106 34.99028557 180.25087106 37.63240051 179.86898804 C40.5475792 179.14506077 43.21600842 178.12978672 46 177 C47.21558594 176.55527344 48.43117188 176.11054688 49.68359375 175.65234375 C56.38551749 173.15736176 62.66439437 170.29766819 68.71484375 166.44921875 C71.76398491 164.51548991 74.91994126 162.80402472 78.08984375 161.078125 C79.77211898 160.12861996 81.39269724 159.07153517 83 158 C83 157.34 83 156.68 83 156 C83.56074219 155.75378906 84.12148438 155.50757813 84.69921875 155.25390625 C92.91969294 150.7738176 101.8998122 142.01198798 105.0234375 133.0703125 C105.84959677 129.72477646 106.46082398 126.40330966 107 123 C107.19207031 121.91460937 107.38414062 120.82921875 107.58203125 119.7109375 C111.11948404 97.1628571 114.4100133 64.35850007 103.56640625 43.203125 C101.85479873 41.08516461 100.20526997 39.59451676 98 38 C97.18273437 37.40574219 96.36546875 36.81148437 95.5234375 36.19921875 C85.7664994 29.63367106 75.17047585 24.6220344 64 21 C63.01257813 20.67257813 62.02515625 20.34515625 61.0078125 20.0078125 C15.61957516 5.96684699 -42.04635145 6.12859655 -86 25 Z " fill="#E6E6E5" transform="translate(256,142)"/>
<path d="M0 0 C1.38125018 2.76250036 1.19079306 4.94731099 1 8 C-1.78645921 10.78645921 -4.5487307 10.48530866 -8.296875 10.7109375 C-9.81797908 10.81977859 -11.33905553 10.92900629 -12.86010742 11.03857422 C-14.05801407 11.12023834 -14.05801407 11.12023834 -15.28012085 11.20355225 C-30.03996038 12.22811304 -44.56835914 13.59536305 -59 17 C-59.75716309 17.17756836 -60.51432617 17.35513672 -61.29443359 17.53808594 C-73.98363117 20.6297862 -85.80219133 25.68984665 -96.625 33.0625 C-100 35 -100 35 -103.4375 34.9375 C-106 34 -106 34 -107 32 C-107.5 29.25 -107.5 29.25 -107 26 C-94.87910386 12.06096943 -71.34868364 6.53188579 -54 3 C-53.18756836 2.82919922 -52.37513672 2.65839844 -51.53808594 2.48242188 C-43.89342061 0.96979593 -36.26964947 0.36715848 -28.5 -0.125 C-27.25863281 -0.21136719 -26.01726562 -0.29773438 -24.73828125 -0.38671875 C-5.07603114 -1.69201038 -5.07603114 -1.69201038 0 0 Z " fill="#E6E6E5" transform="translate(257,166)"/>
<path d="M0 0 C1.31484375 -0.00257813 2.6296875 -0.00515625 3.984375 -0.0078125 C4.66435547 -0.00362305 5.34433594 0.00056641 6.04492188 0.00488281 C8.11878717 0.01559291 10.19178638 0.0049647 12.265625 -0.0078125 C13.58046875 -0.00523437 14.8953125 -0.00265625 16.25 0 C18.04824219 0.00338379 18.04824219 0.00338379 19.8828125 0.00683594 C23.09435462 0.26317891 25.30235048 0.72635047 28.125 2.265625 C29.24753288 5.49290702 29.57590638 7.28788756 28.12890625 10.42553711 C25.11116654 13.19657807 21.95792988 12.85736801 18.0625 12.83203125 C17.27480225 12.83822983 16.48710449 12.84442841 15.67553711 12.85081482 C14.01124304 12.85791424 12.34687797 12.85473671 10.68261719 12.84204102 C8.13343954 12.82817092 5.58793003 12.86224129 3.0390625 12.90039062 C1.4218741 12.90134179 -0.1953189 12.89948311 -1.8125 12.89453125 C-2.57506104 12.90778946 -3.33762207 12.92104767 -4.12329102 12.93470764 C-6.27734375 12.89672852 -6.27734375 12.89672852 -9.875 12.265625 C-12.18272293 9.53476331 -12.875 8.14938479 -12.875 4.578125 C-11.875 2.265625 -11.875 2.265625 -9.7421875 1.13769531 C-6.37277721 0.11287127 -3.52169396 0.00662684 0 0 Z " fill="#EBEBE9" transform="translate(231.875,407.734375)"/>
<path d="M0 0 C3.14740436 0.79947437 5.97376298 1.79994049 9 3 C10.33293979 8.33175915 10.33293979 8.33175915 8.8984375 11.2109375 C7 13 7 13 4.21484375 13.2421875 C3.13332031 13.12101563 2.05179687 12.99984375 0.9375 12.875 C-0.21492188 12.74609375 -1.36734375 12.6171875 -2.5546875 12.484375 C-4.26011719 12.24460938 -4.26011719 12.24460938 -6 12 C-6.99257813 11.86078125 -7.98515625 11.7215625 -9.0078125 11.578125 C-13.93823937 10.7444085 -13.93823937 10.7444085 -16 10 C-18 7 -18 7 -17.8125 3.9375 C-15.65907778 -3.84794956 -6.2336467 -0.85004273 0 0 Z " fill="#DCDCDA" transform="translate(286,167)"/>
<path d="M0 0 C3.0625 0.125 3.0625 0.125 5.0625 1.125 C6.01651173 4.42734829 6.42276745 6.31969629 5 9.5 C3.0625 11.125 3.0625 11.125 0.0625 11.6875 C-2.9375 11.125 -2.9375 11.125 -4.9375 8.9375 C-5.9375 6.125 -5.9375 6.125 -5.1875 3.375 C-3.39270581 0.14437046 -3.39270581 0.14437046 0 0 Z " fill="#DBDBD9" transform="translate(274.9375,408.875)"/>
<path d="M0 0 C1 3 1 3 0.07299805 5.16308594 C-3.04134062 7.92274724 -6.21533795 7.49633169 -10.16796875 7.390625 C-10.96278152 7.38496521 -11.7575943 7.37930542 -12.57649231 7.37347412 C-15.11410866 7.35109004 -17.6503108 7.30089262 -20.1875 7.25 C-21.90818273 7.2299375 -23.62888759 7.21168629 -25.34960938 7.1953125 C-29.56695082 7.15121894 -33.78323569 7.08217965 -38 7 C-38 6.67 -38 6.34 -38 6 C-26.78 6 -15.56 6 -4 6 C-4 5.34 -4 4.68 -4 4 C-3.34 4 -2.68 4 -2 4 C-1.67 3.01 -1.34 2.02 -1 1 C-0.67 0.67 -0.34 0.34 0 0 Z " fill="#E3E3E2" transform="translate(260,413)"/>
<path d="M0 0 C0.8971875 0.309375 0.8971875 0.309375 1.8125 0.625 C1.1525 0.625 0.4925 0.625 -0.1875 0.625 C-0.1875 1.285 -0.1875 1.945 -0.1875 2.625 C-3.79743172 3.75980527 -7.1717327 3.72515767 -10.9375 3.6875 C-12.10796875 3.67847656 -13.2784375 3.66945313 -14.484375 3.66015625 C-15.37640625 3.64855469 -16.2684375 3.63695312 -17.1875 3.625 C-17.1875 3.295 -17.1875 2.965 -17.1875 2.625 C-15.94033203 2.55152344 -15.94033203 2.55152344 -14.66796875 2.4765625 C-13.58128906 2.40179688 -12.49460937 2.32703125 -11.375 2.25 C-10.29605469 2.18039062 -9.21710938 2.11078125 -8.10546875 2.0390625 C-4.79723813 1.56962147 -3.23648403 -0.55482583 0 0 Z " fill="#9B9B9B" transform="translate(293.1875,451.375)"/>
<path d="M0 0 C2.64465038 3.1254959 3.84414715 6.08788267 5 10 C1.83884224 8.63016497 1.0072908 8.0109362 -1 5 C-0.625 2.3125 -0.625 2.3125 0 0 Z " fill="#AEAEAD" transform="translate(380,125)"/>
<path d="M0 0 C1 2 1 2 0.25 4.4375 C-0.93098981 6.85852911 -1.9831559 8.25818009 -4 10 C-4.66 9.67 -5.32 9.34 -6 9 C-4.02 6.03 -2.04 3.06 0 0 Z " fill="#9C9C9C" transform="translate(129,110)"/>
<path d="M0 0 C0 3 0 3 -1.3125 4.38671875 C-2.875 5.59114583 -4.4375 6.79557292 -6 8 C-6.66 7.67 -7.32 7.34 -8 7 C-5.36 4.69 -2.72 2.38 0 0 Z " fill="#8C8C8A" transform="translate(154,84)"/>
<path d="M0 0 C-1.29299694 2.88437779 -2.65941363 4.87219421 -5 7 C-5.66 6.34 -6.32 5.68 -7 5 C-2.25 0 -2.25 0 0 0 Z " fill="#ABABAB" transform="translate(97,325)"/>
<path d="M0 0 C3 3.75 3 3.75 3 6 C4.9600281 7.63676257 4.9600281 7.63676257 7 9 C4.0625 8.625 4.0625 8.625 1 8 C-0.35439668 5.29120665 -0.06501451 2.99066732 0 0 Z " fill="#A1A1A1" transform="translate(150,192)"/>
<path d="M0 0 C0.66 0.33 1.32 0.66 2 1 C2 1.66 2 2.32 2 3 C2.66 3.33 3.32 3.66 4 4 C4 4.66 4 5.32 4 6 C3.34 6 2.68 6 2 6 C2 5.34 2 4.68 2 4 C1.360625 3.87625 0.72125 3.7525 0.0625 3.625 C-0.618125 3.41875 -1.29875 3.2125 -2 3 C-2.33 2.34 -2.66 1.68 -3 1 C-2.01 0.67 -1.02 0.34 0 0 Z " fill="#A6A6A5" transform="translate(115,366)"/>
<path d="M0 0 C3.63 0 7.26 0 11 0 C6.60171741 2.1991413 3.81449408 2.51855059 -1 3 C-0.67 2.01 -0.34 1.02 0 0 Z " fill="#A3A3A2" transform="translate(180,138)"/>
<path d="M0 0 C0.33 0.66 0.66 1.32 1 2 C0.06553465 4.03144641 -0.93224776 6.03533587 -2 8 C-2.99 8 -3.98 8 -5 8 C-3.62845496 5.04590299 -2.01136276 2.55991624 0 0 Z " fill="#A7A7A7" transform="translate(137,100)"/>
<path d="M0 0 C0.33 0.99 0.66 1.98 1 3 C-0.3125 5.1875 -0.3125 5.1875 -2 7 C-2.66 7 -3.32 7 -4 7 C-4 6.01 -4 5.02 -4 4 C-3.34 4 -2.68 4 -2 4 C-1.67 3.01 -1.34 2.02 -1 1 C-0.67 0.67 -0.34 0.34 0 0 Z " fill="#C3C3C3" transform="translate(260,413)"/>
<path d="M0 0 C-0.66 1.32 -1.32 2.64 -2 4 C-2.99 3.67 -3.98 3.34 -5 3 C-5.33 3.66 -5.66 4.32 -6 5 C-6.99 4.34 -7.98 3.68 -9 3 C-2.25 0 -2.25 0 0 0 Z " fill="#ADADAD" transform="translate(369,366)"/>
<path d="M0 0 C1.32 0.33 2.64 0.66 4 1 C4 1.66 4 2.32 4 3 C5.32 3.33 6.64 3.66 8 4 C8 4.99 8 5.98 8 7 C5.5 5.625 5.5 5.625 3 4 C3 3.34 3 2.68 3 2 C2.01 1.67 1.02 1.34 0 1 C0 0.67 0 0.34 0 0 Z " fill="#A4A4A2" transform="translate(338,92)"/>
</svg>
