<svg width="296" height="145" viewBox="0 0 296 145" fill="none" xmlns="http://www.w3.org/2000/svg">
<path d="M99.856 87.12H106.576C107.536 87.12 108.016 86.64 108.016 85.68V27.12C108.016 26.16 107.536 25.68 106.576 25.68H99.856C98.896 25.68 98.416 25.2 98.416 24.24C98.416 23.28 98.896 22.8 99.856 22.8H110.416C111.44 22.8 112.24 23.28 112.816 24.24L152.176 84.24C152.304 84.496 152.496 84.624 152.752 84.624C153.008 84.56 153.136 84.272 153.136 83.76V27.12C153.136 26.16 152.656 25.68 151.696 25.68H145.936C144.976 25.68 144.496 25.2 144.496 24.24C144.496 23.28 144.976 22.8 145.936 22.8H164.176C165.136 22.8 165.616 23.28 165.616 24.24C165.616 25.2 165.136 25.68 164.176 25.68H157.456C156.496 25.68 156.016 26.16 156.016 27.12V85.68C156.016 86.64 156.496 87.12 157.456 87.12H164.176C165.136 87.12 165.616 87.6 165.616 88.56C165.616 89.52 165.136 90 164.176 90H153.616C152.592 90 151.792 89.52 151.216 88.56L111.856 28.56C111.728 28.304 111.536 28.208 111.28 28.272C111.024 28.272 110.896 28.528 110.896 29.04V85.68C110.896 86.64 111.376 87.12 112.336 87.12H118.096C119.056 87.12 119.536 87.6 119.536 88.56C119.536 89.52 119.056 90 118.096 90H99.856C98.896 90 98.416 89.52 98.416 88.56C98.416 87.6 98.896 87.12 99.856 87.12Z" fill="white"/>
<path d="M149.856 87.12H156.576C157.536 87.12 158.016 86.64 158.016 85.68V27.12C158.016 26.16 157.536 25.68 156.576 25.68H149.856C148.896 25.68 148.416 25.2 148.416 24.24C148.416 23.28 148.896 22.8 149.856 22.8H195.456C196.416 22.8 196.896 23.28 196.896 24.24V37.68C196.896 38.64 196.416 39.12 195.456 39.12C194.496 39.12 194.016 38.64 194.016 37.68V27.12C194.016 26.16 193.536 25.68 192.576 25.68H162.336C161.376 25.68 160.896 26.16 160.896 27.12V53.04C160.896 54 161.376 54.48 162.336 54.48H184.896C185.856 54.48 186.336 54 186.336 53.04V48.24C186.336 47.28 186.816 46.8 187.776 46.8C188.736 46.8 189.216 47.28 189.216 48.24V63.6C189.216 64.56 188.736 65.04 187.776 65.04C186.816 65.04 186.336 64.56 186.336 63.6V58.8C186.336 57.84 185.856 57.36 184.896 57.36H162.336C161.376 57.36 160.896 57.84 160.896 58.8V85.68C160.896 86.64 161.376 87.12 162.336 87.12H170.016C170.976 87.12 171.456 87.6 171.456 88.56C171.456 89.52 170.976 90 170.016 90H149.856C148.896 90 148.416 89.52 148.416 88.56C148.416 87.6 148.896 87.12 149.856 87.12Z" fill="white"/>
<path d="M35.9865 125.455V140H34.6939L26.1001 127.82H25.9865V140H24.6584V125.455H25.9439L34.5661 137.649H34.6797V125.455H35.9865ZM57.4034 132.727C57.4034 134.242 57.1335 135.561 56.5938 136.683C56.054 137.801 55.3106 138.667 54.3636 139.283C53.4214 139.893 52.3371 140.199 51.1108 140.199C49.8845 140.199 48.7978 139.893 47.8509 139.283C46.9086 138.667 46.1676 137.801 45.6278 136.683C45.0928 135.561 44.8253 134.242 44.8253 132.727C44.8253 131.212 45.0928 129.896 45.6278 128.778C46.1676 127.656 46.911 126.79 47.858 126.179C48.8049 125.563 49.8892 125.256 51.1108 125.256C52.3371 125.256 53.4214 125.563 54.3636 126.179C55.3106 126.79 56.054 127.656 56.5938 128.778C57.1335 129.896 57.4034 131.212 57.4034 132.727ZM56.1108 132.727C56.1108 131.425 55.893 130.31 55.4574 129.382C55.0218 128.449 54.4276 127.737 53.6747 127.244C52.9219 126.752 52.0672 126.506 51.1108 126.506C50.1591 126.506 49.3068 126.752 48.554 127.244C47.8011 127.737 47.2045 128.447 46.7642 129.375C46.3286 130.303 46.1108 131.42 46.1108 132.727C46.1108 134.029 46.3286 135.144 46.7642 136.072C47.1998 137 47.794 137.713 48.5469 138.21C49.2997 138.703 50.1544 138.949 51.1108 138.949C52.0672 138.949 52.9219 138.703 53.6747 138.21C54.4323 137.718 55.0289 137.008 55.4645 136.08C55.9001 135.147 56.1155 134.029 56.1108 132.727ZM66.2617 125.455L70.8072 138.274H70.935L75.4805 125.455H76.8725L71.5813 140H70.1609L64.8697 125.455H66.2617ZM85.0117 140H83.6197L88.9109 125.455H90.3313L95.6225 140H94.2305L89.6708 127.18H89.5714L85.0117 140ZM86.0131 134.425H93.229V135.618H86.0131V134.425ZM120.615 140V125.455H129.032V126.648H121.944V132.124H128.371V133.317H121.944V140H120.615ZM137.959 140V125.455H142.654C143.686 125.455 144.548 125.642 145.239 126.016C145.935 126.385 146.458 126.899 146.809 127.557C147.164 128.21 147.341 128.961 147.341 129.808C147.341 130.656 147.164 131.404 146.809 132.053C146.458 132.701 145.937 133.208 145.246 133.572C144.555 133.937 143.698 134.119 142.675 134.119H138.676V132.905H142.64C143.397 132.905 144.027 132.779 144.529 132.528C145.035 132.277 145.412 131.92 145.658 131.456C145.909 130.992 146.034 130.443 146.034 129.808C146.034 129.174 145.909 128.62 145.658 128.146C145.407 127.668 145.028 127.299 144.522 127.038C144.02 126.778 143.385 126.648 142.618 126.648H139.287V140H137.959ZM144.373 133.438L147.952 140H146.418L142.874 133.438H144.373ZM168.126 132.727C168.126 134.242 167.856 135.561 167.316 136.683C166.777 137.801 166.033 138.667 165.086 139.283C164.144 139.893 163.06 140.199 161.833 140.199C160.607 140.199 159.52 139.893 158.574 139.283C157.631 138.667 156.89 137.801 156.35 136.683C155.815 135.561 155.548 134.242 155.548 132.727C155.548 131.212 155.815 129.896 156.35 128.778C156.89 127.656 157.634 126.79 158.581 126.179C159.528 125.563 160.612 125.256 161.833 125.256C163.06 125.256 164.144 125.563 165.086 126.179C166.033 126.79 166.777 127.656 167.316 128.778C167.856 129.896 168.126 131.212 168.126 132.727ZM166.833 132.727C166.833 131.425 166.616 130.31 166.18 129.382C165.744 128.449 165.15 127.737 164.397 127.244C163.645 126.752 162.79 126.506 161.833 126.506C160.882 126.506 160.029 126.752 159.277 127.244C158.524 127.737 157.927 128.447 157.487 129.375C157.051 130.303 156.833 131.42 156.833 132.727C156.833 134.029 157.051 135.144 157.487 136.072C157.922 137 158.517 137.713 159.27 138.21C160.022 138.703 160.877 138.949 161.833 138.949C162.79 138.949 163.645 138.703 164.397 138.21C165.155 137.718 165.752 137.008 166.187 136.08C166.623 135.147 166.838 134.029 166.833 132.727ZM188.291 125.455V140H186.999L178.405 127.82H178.291V140H176.963V125.455H178.249L186.871 137.649H186.984V125.455H188.291ZM196.903 126.648V125.455H207.45V126.648H202.84V140H201.512V126.648H196.903ZM217.393 125.455V140H216.065V125.455H217.393ZM226.885 140V125.455H235.322V126.648H228.213V132.124H234.875V133.317H228.213V138.807H235.464V140H226.885ZM244.385 140V125.455H249.08C250.112 125.455 250.973 125.642 251.665 126.016C252.361 126.385 252.884 126.899 253.234 127.557C253.589 128.21 253.767 128.961 253.767 129.808C253.767 130.656 253.589 131.404 253.234 132.053C252.884 132.701 252.363 133.208 251.672 133.572C250.981 133.937 250.124 134.119 249.101 134.119H245.102V132.905H249.065C249.823 132.905 250.453 132.779 250.955 132.528C251.461 132.277 251.838 131.92 252.084 131.456C252.335 130.992 252.46 130.443 252.46 129.808C252.46 129.174 252.335 128.62 252.084 128.146C251.833 127.668 251.454 127.299 250.947 127.038C250.446 126.778 249.811 126.648 249.044 126.648H245.713V140H244.385ZM250.798 133.438L254.378 140H252.844L249.3 133.438H250.798ZM270.525 129.091C270.444 128.281 270.087 127.637 269.452 127.159C268.818 126.681 268.02 126.442 267.059 126.442C266.382 126.442 265.785 126.558 265.269 126.79C264.758 127.022 264.355 127.344 264.062 127.756C263.773 128.163 263.629 128.627 263.629 129.148C263.629 129.531 263.711 129.867 263.877 130.156C264.043 130.445 264.265 130.694 264.545 130.902C264.829 131.106 265.141 131.281 265.482 131.428C265.828 131.574 266.176 131.697 266.526 131.797L268.06 132.237C268.524 132.365 268.988 132.528 269.452 132.727C269.916 132.926 270.34 133.177 270.724 133.48C271.112 133.778 271.422 134.145 271.654 134.581C271.891 135.012 272.009 135.53 272.009 136.136C272.009 136.913 271.808 137.611 271.406 138.232C271.003 138.852 270.425 139.344 269.673 139.709C268.92 140.069 268.018 140.249 266.967 140.249C265.977 140.249 265.118 140.085 264.388 139.759C263.659 139.427 263.086 138.97 262.67 138.388C262.253 137.805 262.019 137.131 261.967 136.364H263.33C263.378 136.937 263.567 137.422 263.898 137.82C264.23 138.217 264.661 138.52 265.191 138.729C265.721 138.932 266.313 139.034 266.967 139.034C267.691 139.034 268.335 138.913 268.898 138.672C269.467 138.426 269.912 138.085 270.234 137.649C270.56 137.209 270.724 136.697 270.724 136.115C270.724 135.623 270.596 135.211 270.34 134.879C270.085 134.543 269.727 134.261 269.268 134.034C268.813 133.807 268.285 133.606 267.684 133.43L265.944 132.919C264.803 132.578 263.917 132.107 263.288 131.506C262.658 130.904 262.343 130.137 262.343 129.205C262.343 128.423 262.551 127.737 262.968 127.145C263.389 126.548 263.958 126.084 264.673 125.753C265.392 125.417 266.2 125.249 267.094 125.249C267.999 125.249 268.799 125.414 269.495 125.746C270.191 126.077 270.743 126.534 271.15 127.116C271.562 127.694 271.782 128.352 271.81 129.091H270.525Z" fill="white"/>
<path d="M149.001 1.10498C182.636 0.938182 213.094 6.8784 235.142 16.597C246.167 21.4565 255.067 27.2512 261.214 33.6788C267.358 40.1038 270.731 47.1389 270.767 54.5018C270.804 61.8648 267.501 68.9329 261.421 75.4185C255.338 81.9068 246.496 87.7895 235.52 92.7581C213.569 102.695 183.172 108.937 149.537 109.104C115.901 109.27 85.4434 103.33 63.3952 93.6117C52.3706 88.7522 43.4703 82.9574 37.3238 76.5298C31.1799 70.1048 27.8068 63.0697 27.7703 55.7068C27.7337 48.3439 31.0369 41.2757 37.1168 34.7901C43.1993 28.3019 52.0416 22.4191 63.0175 17.4505C84.9683 7.51376 115.366 1.27177 149.001 1.10498Z" stroke="white"/>
<rect x="208" width="20" height="20" rx="10" fill="white"/>
<rect x="39" y="79" width="10" height="10" rx="5" fill="white"/>
</svg>
