<svg width="130" height="89" viewBox="0 0 130 89" fill="none" xmlns="http://www.w3.org/2000/svg">
<path d="M61.8984 84.9711C60.1339 82.772 60.1339 79.2066 61.8984 77.0075L120.415 4.07869C122.18 1.87961 125.041 1.87961 126.805 4.07869C128.57 6.27778 128.57 9.84319 126.805 12.0423L68.2882 84.9711C66.5237 87.1702 63.6629 87.1702 61.8984 84.9711Z" fill="white"/>
<path d="M68.2172 85.0182C69.9817 82.8191 69.9817 79.2537 68.2172 77.0546L9.58477 3.9818C7.82027 1.78271 4.95943 1.78271 3.19492 3.9818C1.43042 6.18088 1.43042 9.7463 3.19493 11.9454L61.8273 85.0182C63.5919 87.2173 66.4527 87.2173 68.2172 85.0182Z" fill="white"/>
</svg>
