<svg width="180" height="180" viewBox="0 0 180 180" fill="none" xmlns="http://www.w3.org/2000/svg">
<path d="M180 69.5C180 107.884 148.884 139 110.5 139C72.1162 139 41 107.884 41 69.5C41 31.1162 72.1162 0 110.5 0C148.884 0 180 31.1162 180 69.5ZM55.3908 69.5C55.3908 99.936 80.064 124.609 110.5 124.609C140.936 124.609 165.609 99.936 165.609 69.5C165.609 39.064 140.936 14.3908 110.5 14.3908C80.064 14.3908 55.3908 39.064 55.3908 69.5Z" fill="white"/>
<path d="M4.42375 175.557C1.98059 173.103 1.98059 169.124 4.42375 166.67L62.7274 108.109C65.1706 105.655 69.1318 105.655 71.5749 108.109C74.0181 110.563 74.0181 114.542 71.5749 116.996L13.2712 175.557C10.8281 178.011 6.86692 178.011 4.42375 175.557Z" fill="white"/>
</svg>
