<svg width="180" height="180" viewBox="0 0 180 180" fill="none" xmlns="http://www.w3.org/2000/svg">
<path d="M85.7054 4.47741C83.2623 6.92141 83.2623 10.8839 85.7054 13.3279L166.729 94.3792C169.172 96.8232 173.133 96.8232 175.576 94.3792C178.019 91.9352 178.019 87.9726 175.576 85.5286L94.5529 4.4774C92.1097 2.0334 88.1486 2.0334 85.7054 4.47741Z" fill="black"/>
<path d="M94.4545 4.42516C96.8977 6.86916 96.8977 10.8317 94.4545 13.2757L13.2712 94.487C10.828 96.931 6.86689 96.931 4.42373 94.487C1.98057 92.043 1.98057 88.0805 4.42373 85.6365L85.6071 4.42516C88.0502 1.98116 92.0114 1.98115 94.4545 4.42516Z" fill="black"/>
<path d="M89.4972 2.95581C86.165 2.95581 83.4637 5.65711 83.4637 8.98933V173.966C83.4637 177.299 86.165 180 89.4972 180C92.8294 180 95.5307 177.299 95.5307 173.966V8.98934C95.5307 5.65712 92.8294 2.95581 89.4972 2.95581Z" fill="black"/>
</svg>
