<svg width="180" height="180" viewBox="0 0 180 180" fill="none" xmlns="http://www.w3.org/2000/svg">
<path d="M4.54277 175.576C2.09957 173.133 2.09957 169.171 4.54277 166.728L166.731 4.53951C169.175 2.0963 173.136 2.09631 175.579 4.53951C178.022 6.98272 178.022 10.9439 175.579 13.3871L13.3904 175.576C10.9472 178.019 6.98598 178.019 4.54277 175.576Z" fill="white"/>
<path d="M175.456 175.473C177.899 173.029 177.899 169.068 175.456 166.625L13.2708 4.42407C10.8277 1.98075 6.86671 1.98076 4.42362 4.42407C1.98053 6.86739 1.98053 10.8288 4.42362 13.2721L166.609 175.473C169.052 177.916 173.013 177.916 175.456 175.473Z" fill="white"/>
</svg>
